# xmcd CD database file
#
# Track frame offsets:
#	150
#	29487
#	56302
#	85475
#	123036
#	156992
#	178303
#	207315
#	228871
#	256725
#
# Disc length: 3779 seconds
#
# Revision: 0
# Processed by: cddbd v1.5.1PL2 Copyright (c) Steve Scherf et al.
# Submitted via: CDex 1.51
#
DISCID=7f0ec10a
DTITLE=Vibes  - Vibes 4
DYEAR=2001
DGENRE=Jazz
TTITLE0=Silk flowers
TTITLE1=Away With Me
TTITLE2=Me and You
TTITLE3=Little Jack Russell
TTITLE4=Butterflies
TTITLE5=Then Came Jacky
TTITLE6=Antonia
TTITLE7=Michelle
TTITLE8=Crebwalkin'
TTITLE9=Can't Take My Eyes Off You
EXTD=YEAR: 2001
EXTT0=
EXTT1=
EXTT2=
EXTT3=
EXTT4=
EXTT5=
EXTT6=
EXTT7=
EXTT8=
EXTT9=
PLAYORDER=
